PathFileType	4	(X/Y/Z)	C:/Users/beibeiliu/ov580/test_trc/capture2\sequence.20_training_dense_left.trc
DataRate	CameraRate	NumFrames	NumMarkers	Units	OrigDataRate	OrigDataStartFrame	OrigNumFrames
120	120	15	19	mm	120	211	337
Frame#	Time	ThumbCMC			ThumbMCP			ThumbIP			ThumbTip			IndexMCP			IndexPIP			IndexTip			MiddleMCP			MiddlePIP			MiddleTip			RingMCP			RingPIP			RingTip			PinkyMCP			PinkyPIP			PinkyTip			BackHand1			BackHand2			BackHand3	
		X0	Y0	Z0	X1	Y1	Z1	X2	Y2	Z2	X3	Y3	Z3	X4	Y4	Z4	X5	Y5	Z5	X6	Y6	Z6	X7	Y7	Z7	X8	Y8	Z8	X9	Y9	Z9	X10	Y10	Z10	X11	Y11	Z11	X12	Y12	Z12	X13	Y13	Z13	X14	Y14	Z14	X15	Y15	Z15	X16	Y16	Z16	X17	Y17	Z17	X18	Y18	Z18	
210	1.75	-183.798	52.7629	11.774	-179.921	54.1284	-16.5413	-171.151	37.1601	-38.9985	-153.11	17.8412	-48.4103	-182.728	-2.60095	-37.7934	-178.469	-18.5432	-57.7174	-169.501	-36.1192	-68.2657	-165.733	-19.0532	-33.7073	-162.062	-31.1499	-52.0071	-155.772	-54.7208	-74.9672	-149.021	-22.8495	-24.077	-148.055	-34.0443	-43.1508	-145.133	-51.8062	-63.8389	-133.603	-20.9386	-9.06496	-131.779	-34.3119	-29.476	-134.96	-49.4134	-47.2305	-160.303	-0.646117	23.1756	-159.296	11.8736	49.2316	-183.843	18.9634	20.7083	
211	1.75833	-180.921	48.9342	11.3189	-176.602	46.5554	-19.1225	-166.765	32.6629	-43.0421	-149.472	16.9684	-46.5766	-178.13	-7.44747	-40.2806	-170.464	-21.7935	-56.006	-161.884	-43.1579	-70.6936	-160.647	-23.0961	-32.1274	-155.664	-35.8133	-51.6774	-147.415	-58.6907	-73.5108	-145.839	-29.7186	-25.3895	-142.246	-42.4904	-43.592	-138.076	-58.9589	-64.0496	-133.311	-26.6824	-10.5125	-128.961	-36.5302	-26.3096	-130.505	-53.2512	-43.0286	-157.416	-8.42367	21.206	-160.815	4.7617	45.6715	-186.882	15.4025	18.6408	
212	1.76667	-183.892	47.5586	6.86631	-177.029	48.1607	-22.3751	-162.492	28.4276	-42.8971	-144.11	12.417	-45.2299	-172.467	-10.5621	-40.8306	-166.234	-24.8814	-57.4643	-157.458	-44.0567	-72.0964	-160.615	-23.2312	-34.1477	-148.301	-42.0659	-51.222	-143.073	-60.1375	-73.6759	-144.892	-30.9803	-23.0852	-137.999	-45.9932	-43.8842	-132.869	-60.1652	-59.3785	-131.807	-26.5673	-5.50422	-126.751	-41.9029	-23.825	-122.03	-59.2285	-39.0481	-157.36	-10.6006	22.616	-164.708	1.58396	48.2408	-181.147	10.5543	17.6224	
213	1.775	-180.116	42.9022	9.55222	-173.351	45.1466	-24.2318	-159.201	25.1465	-41.1838	-139.213	4.58	-46.4	-167.607	-14.9344	-42.5709	-161.332	-27.049	-60.0361	-149.691	-44.6922	-69.7421	-155.022	-30.5603	-37.5933	-146.921	-42.6388	-52.1574	-135.685	-62.0107	-70.4853	-142.554	-34.64	-22.1932	-135.475	-48.8045	-41.8314	-129.879	-61.8406	-59.6189	-131.396	-31.5901	-7.29631	-126.114	-45.4831	-25.3535	-121.851	-65.3921	-39.8642	-158.493	-14.836	20.9724	-166.123	-1.55646	45.5153	-185.173	10.9689	16.0517	
214	1.78333	-180.676	41.2218	5.97973	-169.369	39.5707	-24.833	-154.248	22.9977	-42.2389	-137.239	7.13044	-44.4357	-164.929	-14.4227	-45.6789	-153.275	-27.2011	-60.7012	-142.027	-44.4398	-77.3091	-153.174	-28.355	-37.3673	-142.184	-43.1444	-59.6574	-130.843	-60.3654	-77.1158	-139.048	-35.9223	-23.2204	-130.468	-48.7176	-39.8025	-120.728	-64.4551	-61.2127	-130.022	-34.4043	-6.95171	-121.61	-49.0053	-25.5221	-116.963	-67.8192	-40.6685	-162.129	-17.8196	15.9088	-170.683	-3.59923	41.2052	-185.731	4.9952	12.8769	
215	1.79167	-178.159	38.5973	3.35729	-166.646	40.5697	-24.5525	-150.268	25.015	-42.7969	-134.006	9.04809	-45.0103	-160.789	-10.5824	-43.6393	-148.338	-24.4512	-61.4695	-134.699	-39.3198	-75.8232	-146.807	-30.2848	-39.8652	-136.659	-39.7727	-57.0571	-122.291	-59.1118	-78.9065	-137.107	-36.6975	-29.1709	-124.52	-48.5292	-40.5505	-116.853	-60.0766	-61.6015	-127.81	-37.1874	-7.89096	-120.228	-46.8175	-23.5186	-114.256	-65.289	-41.3955	-160.423	-18.2305	15.2389	-176.192	-5.52762	39.166	-185.837	3.56977	6.68498	
216	1.8	-179.363	40.5341	5.79282	-162.761	40.4021	-24.8566	-147.507	29.0345	-42.6521	-129.192	8.36185	-43.5976	-156.872	-8.96943	-47.5471	-140.255	-22.2808	-66.4391	-128.122	-34.5197	-79.1836	-146.594	-24.339	-42.3327	-131.161	-38.3569	-61.821	-113.232	-54.4281	-77.6533	-135.143	-31.8362	-26.4443	-120.158	-45.6487	-43.2326	-110.183	-57.515	-64.398	-128.559	-33.8601	-9.93783	-117.776	-44.1969	-23.678	-110.812	-60.5452	-42.8058	-163.91	-17.4279	10.4826	-174.001	-9.21198	36.1823	-184.736	4.21177	5.39469	
217	1.80833	-180.179	42.0037	-1.22492	-161.663	43.1733	-25.3887	-144.918	33.247	-40.3145	-126.735	13.0588	-40.8622	-152.1	-5.50816	-50.7712	-137.219	-14.9982	-64.0845	-121.169	-26.9903	-81.1943	-139.696	-24.1524	-45.5088	-125.673	-32.4497	-60.9596	-108.054	-47.332	-77.6557	-130.658	-30.6844	-29.6003	-116.303	-42.0521	-41.6026	-104.094	-53.0226	-65.6992	-125.986	-29.946	-7.34934	-112.733	-42.9723	-21.4846	-103.076	-56.0768	-43.2271	-164.039	-16.7294	8.72373	-176.707	-7.11165	34.7759	-184.648	5.05662	3.0865	
218	1.81667	-179.226	43.771	-0.425778	-161.419	48.4073	-22.7299	-142.403	34.693	-39.8757	-122.737	16.3955	-40.8022	-148.819	-0.808009	-48.6448	-131.994	-9.69712	-63.205	-114.428	-20.9335	-80.1034	-135.931	-20.4538	-43.0962	-119.601	-27.1153	-56.7755	-99.7591	-40.4799	-76.6736	-129.269	-26.3973	-25.8034	-113.568	-36.7712	-44.5702	-98.9737	-46.6457	-59.5985	-124.526	-28.238	-4.13897	-111.923	-37.1658	-24.9249	-100.908	-52.1152	-42.2183	-163.747	-14.1285	8.92338	-178.305	-8.35156	32.6467	-186.766	7.00741	3.36504	
219	1.825	-178.092	47.5199	1.42147	-159.441	53.7054	-22.3962	-137.839	37.2918	-39.8868	-120.996	22.4273	-36.9593	-145.477	5.12933	-48.3419	-126.364	-4.32738	-61.8195	-104.81	-14.3955	-79.2341	-133.23	-12.5737	-41.0708	-114.196	-22.1826	-54.3931	-93.3547	-33.1348	-72.2248	-124.324	-23.0046	-28.6157	-111.112	-28.7084	-41.8826	-93.6134	-41.7379	-59.9676	-124.283	-22.2557	-7.27216	-109.392	-33.8754	-19.5031	-99.1355	-44.232	-38.4932	-161.506	-10.4743	8.29248	-181.33	-4.40044	28.9067	-183.148	10.698	-0.10216	
220	1.83333	-178.327	53.4874	0.849396	-157.418	57.9148	-21.4665	-135.653	46.8023	-38.1016	-117.742	24.5071	-32.9243	-140.032	9.98108	-46.858	-119.188	2.09917	-62.9511	-102.014	-6.70484	-75.1618	-131.23	-5.32669	-41.4064	-110.321	-14.471	-56.6449	-86.8699	-25.4885	-73.2505	-122.046	-18.9702	-27.7506	-105.69	-26.1867	-38.01	-89.2776	-34.2291	-55.4714	-120.962	-23.6028	-7.63679	-108.789	-29.3643	-19.059	-95.6147	-39.7423	-39.4223	-159.691	-9.10192	7.92574	-180.186	1.35022	25.3211	-182.849	16.998	-3.8142	
221	1.84167	-177.492	59.1119	1.08669	-153.463	62.2026	-20.9188	-130.472	48.307	-35.1438	-113.405	27.7781	-30.2391	-137.09	14.8721	-44.2873	-117.192	7.55603	-58.4236	-95.3613	-1.99277	-71.2514	-128.216	-1.51755	-41.866	-104.929	-11.5003	-52.7132	-80.8516	-21.2227	-68.7334	-122.381	-11.7409	-27.084	-102.79	-20.774	-37.7804	-83.5587	-31.2856	-54.0493	-121.81	-16.5384	-8.48402	-106.47	-25.0952	-18.2019	-92.5144	-37.9587	-34.9893	-160.88	-3.15523	5.01573	-185.115	2.24546	29.0719	-182.293	22.7816	-6.12878	
222	1.85	-174.267	62.6374	4.1631	-149.571	66.3148	-16.7691	-127.319	51.9655	-31.0969	-111.089	28.5697	-24.1283	-136.007	23.088	-43.691	-115.051	16.179	-56.9299	-94.0292	6.11136	-68.2134	-127.664	4.94073	-38.2894	-102.076	-4.1744	-52.6318	-77.1158	-15.0152	-65.2898	-121.206	-7.19616	-27.2159	-102.597	-16.045	-35.8374	-82.2556	-25.7874	-49.4543	-123.799	-12.0909	-2.94404	-103.732	-21.9781	-18.24	-90.1263	-33.415	-34.4828	-162.163	-0.882037	5.64977	-184.96	8.88803	25.3266	-182.102	27.0814	-0.672951	
223	1.85833	-172.763	68.8594	6.62521	-148.274	74.3113	-7.95452	-127.508	57.835	-20.8425	-109.744	35.8225	-21.4127	-131.744	29.3488	-41.6396	-110.74	20.4283	-52.0788	-88.1344	10.0432	-63.0344	-122.804	8.43493	-35.3977	-101.59	3.63372	-49.4286	-75.0523	-5.89976	-64.2706	-121.584	-0.812715	-25.1878	-98.8131	-9.92299	-35.9999	-80.8024	-16.1016	-47.8466	-122.462	-8.97479	-7.72622	-104.962	-14.394	-18.7754	-88.9178	-27.1404	-33.6894	-165.433	6.18907	2.20241	-185.896	8.03695	22.9178	-179.878	32.9628	-0.701342	
224	1.86667	-169.712	72.3547	11.0486	-144.608	74.5625	-4.00817	-121.273	67.2477	-18.2987	-107.341	41.7471	-17.3342	-128.094	37.0525	-39.9139	-105.368	27.9534	-50.799	-83.0469	20.2024	-60.9848	-119.411	15.3844	-35.52	-96.4051	7.54423	-47.0914	-72.4683	2.94042	-61.6085	-121.456	4.69448	-21.1365	-97.4719	-5.45703	-34.2507	-77.9961	-8.70911	-46.8224	-123.505	-7.52677	-6.43361	-105.569	-13.4876	-16.6136	-87.5734	-20.9933	-34.6207	-166.016	9.34882	4.33088	-189.593	14.9978	21.5267	-179.288	41.5563	-3.8301	
